<?xml version="1.0" encoding="UTF-8"?>
<svg width="32px" height="21px" viewBox="0 0 32 21" version="1.1" xmlns="http://www.w3.org/2000/svg" xmlns:xlink="http://www.w3.org/1999/xlink">
    <!-- Generator: Sketch 50.2 (55047) - http://www.bohemiancoding.com/sketch -->
    <title>Untitled</title>
    <desc>Created with Sketch.</desc>
    <defs></defs>
    <g id="Page-1" stroke="none" stroke-width="1" fill="none" fill-rule="evenodd">
        <g id="hamburger" fill="#FFFFFF" fill-rule="nonzero">
            <path d="M2.28571429,3 L29.7142857,3 C30.976,3 32,2.328 32,1.5 C32,0.672 30.976,0 29.7142857,0 L2.28571429,0 C1.024,0 0,0.672 0,1.5 C0,2.328 1.024,3 2.28571429,3 Z M29.7142857,9 L2.28571429,9 C1.024,9 0,9.672 0,10.5 C0,11.328 1.024,12 2.28571429,12 L29.7142857,12 C30.976,12 32,11.328 32,10.5 C32,9.672 30.976,9 29.7142857,9 Z M29.7142857,18 L2.28571429,18 C1.024,18 0,18.672 0,19.5 C0,20.328 1.024,21 2.28571429,21 L29.7142857,21 C30.976,21 32,20.328 32,19.5 C32,18.672 30.976,18 29.7142857,18 Z" id="Shape"></path>
        </g>
    </g>
</svg>